<svg width="74" height="74" viewBox="0 0 74 74" fill="none" xmlns="http://www.w3.org/2000/svg">
<path d="M19.2573 44.0607L20.984 31.0568L5.98358 20.6428L19.689 25.2832L22.9265 20.319L34.7434 12.9807L60.8052 27.3336L62.1543 49.2407L50.5532 65.3743L41.3802 66.7772L46.1286 58.0898V49.7264L42.6752 43.1973L39.168 40.8772L33.7722 46.4348V52.3164L29.5634 56.2553L24.2215 56.9028L21.8473 58.2518L17.9623 57.0107L16.3436 51.1832L19.2573 47.0823V44.0607Z" fill="white"/>
<path d="M43.2147 20.5348C40.3549 19.9413 37.2253 20.1032 37.2253 20.1032C37.2253 20.1032 36.2002 24.8515 29.8331 26.0926C29.887 26.0926 38.2506 28.9523 43.2147 20.5348Z" fill="#94A6C3"/>
<path d="M45.8046 63.5937C49.2579 60.8958 51.8479 57.1726 53.035 52.9639C53.089 52.802 53.5746 52.5322 53.8983 52.3164C54.4379 51.9926 54.9775 51.7229 55.0854 51.2912C55.3013 50.0501 55.4092 48.7551 55.4092 47.4601C55.4092 46.9745 54.9236 46.4889 54.4379 46.0033C54.0603 45.6796 53.6825 45.3018 53.6825 45.032C53.1429 40.1218 50.8767 35.5354 47.2615 32.19L46.8838 32.5676C50.3911 35.8591 52.6574 40.3376 53.1429 45.0859C53.1969 45.5176 53.6286 45.9493 54.0603 46.3809C54.4379 46.7047 54.8696 47.1904 54.8696 47.4062C54.8696 48.6472 54.7617 49.8883 54.5458 51.1293C54.4919 51.3451 54.0063 51.5609 53.6286 51.7768C53.089 52.0466 52.6033 52.3164 52.4954 52.748C51.2004 57.3346 48.2328 61.3275 44.2938 63.9175C44.9953 62.4066 47.2075 57.4964 48.3946 55.0143L48.1788 47.0284L41.3261 40.3916L37.4411 40.9312L33.1783 47.8379C33.1783 47.8379 35.1749 50.3739 32.369 53.3416C29.6171 56.2554 27.4588 56.9029 27.4588 56.9029L25.4624 55.8237C26.0558 55.0683 27.2429 53.9351 28.1603 53.1797C29.725 51.8847 31.2899 51.7768 31.2899 50.3739C31.3438 47.4601 28.2142 48.2695 28.2142 48.2695L27.0811 49.3487L26.5954 53.3416L24.2213 56.3093L23.9515 56.2554L20.0665 55.392C20.0665 55.392 22.4407 54.1509 22.8183 52.748C23.1961 51.3991 22.0629 46.9205 22.009 46.6508C22.0629 46.7047 23.1421 47.622 23.6278 49.1329C24.4911 46.7587 25.6242 44.4925 25.9479 44.2766C26.2717 44.0608 30.6424 41.7405 30.6424 41.7405L29.1854 45.5716L30.2646 44.978L32.8546 38.6109C32.8546 38.6109 35.3907 37.37 37.2792 37.37C40.6786 37.3159 45.6967 33.1612 43.4304 25.715C44.0779 25.9847 55.3013 31.5964 57.2438 42.6039C58.7007 51.0754 53.8983 59.0072 45.8046 63.5937Z" fill="#94A6C3"/>
<path d="M32.9627 21.722C34.2037 20.265 33.7182 18.1067 33.7182 18.1067L30.1029 23.4486C30.049 23.4486 31.3979 23.5025 32.9627 21.722Z" fill="#1B314F"/>
<path d="M20.8221 50.9135L21.2538 48.7551C21.2538 48.7551 19.4732 51.8847 19.3113 52.3164C19.1494 52.8021 19.4192 53.6654 20.1207 53.6114C20.8221 53.5575 21.6854 52.5322 21.6854 51.7768C21.6854 50.8055 20.8221 50.9135 20.8221 50.9135Z" fill="#1B314F"/>
<path d="M52.8733 16.596C52.8733 16.596 55.5712 16.7039 58.3771 17.0277C52.064 12.0635 46.0746 10.6066 41.2183 10.6066C34.5275 10.6066 29.995 13.3585 29.7253 13.5203L31.8296 10.1749C31.8296 10.1749 23.4121 9.36554 20.4443 18.2686C19.6889 16.3802 18.9875 13.6283 18.9875 13.6283C18.9875 13.6283 14.6168 17.4593 16.6672 23.8264C11.6492 21.9918 4.4727 19.4557 4.2029 19.4018C3.8252 19.3478 3.71728 19.5097 3.71728 19.5097C3.71728 19.5097 3.60936 19.6715 3.93311 19.9414C4.52665 20.427 15.8579 28.7906 18.34 30.4093C17.8004 32.3518 17.8004 33.269 18.34 34.1864C19.0954 35.4274 19.1493 36.0749 19.0414 36.9922C18.9335 37.9095 17.9623 45.8414 17.7464 46.8127C17.5306 47.7839 15.2644 51.2372 15.3722 52.2624C15.4803 53.2877 16.8832 57.6582 18.1242 58.1439C19.0415 58.4677 21.3078 59.1692 22.8186 59.1692C23.3582 59.1692 23.8437 59.0611 24.0596 58.8454C24.9769 58.036 25.2467 57.8742 25.8942 57.8742C25.9481 57.8742 26.0021 57.8742 26.0561 57.8742C26.3258 57.8742 26.6496 57.9281 27.0273 57.9281C27.8907 57.9281 29.0237 57.7663 29.8332 57.0108C31.0203 55.8236 33.0706 54.2049 33.7182 53.4495C34.5275 52.4243 34.9592 51.0214 34.7433 49.6185C34.5815 48.3235 35.2829 47.1903 36.0922 46.0572C37.1175 44.7082 39.006 42.2802 39.006 42.2802C42.7292 45.086 45.0493 49.3486 45.0493 54.097C45.0493 62.5146 37.711 69.3133 28.6461 69.3133C27.2432 69.3133 25.8942 69.1514 24.5453 68.8277C28.7 70.2846 32.2073 70.7702 35.0671 70.7702C41.1643 70.7702 44.4018 68.5579 44.4018 68.5579C44.4018 68.5579 43.2687 70.0147 41.4342 71.6875C41.4881 71.6875 41.4881 71.6875 41.4881 71.6875C51.5783 70.2846 56.4885 61.975 56.4885 61.975C56.4885 61.975 56.1108 64.6729 55.6251 66.5075C69.0608 56.4172 66.7946 43.791 66.7406 43.3593C66.8485 43.5211 68.1975 45.1399 68.8989 46.0032C71.0572 23.7724 52.8733 16.596 52.8733 16.596ZM32.2073 52.1006C31.9915 52.3703 31.0742 53.1797 30.4267 53.7733C29.7792 54.3668 29.0776 54.9603 28.5381 55.4999C28.3223 55.7157 27.8907 55.8236 27.2432 55.8236C27.0272 55.8236 26.8115 55.8236 26.6496 55.8236C26.5417 55.8236 26.4337 55.8236 26.3258 55.8236C26.2179 55.8236 26.164 55.8236 26.11 55.8236C25.9482 55.8236 25.7862 55.8236 25.6244 55.8236C26.4337 54.7445 28.8079 52.2624 29.6172 51.7228C30.5886 51.0753 31.0742 50.4278 30.4807 49.2947C29.8871 48.1615 28.3223 48.4314 28.3223 48.4314C28.3223 48.4314 29.2396 48.0536 30.049 48.0536C29.0237 47.7839 27.7287 48.0536 27.1353 48.6472C26.4878 49.2407 26.5957 51.3452 26.3258 52.6941C26.0561 54.097 25.1387 54.7985 23.7358 56.0935C22.9804 56.7949 22.4408 57.0108 22.0092 57.0108C21.0919 56.8489 20.0126 56.579 19.2572 56.3093C18.7176 55.6079 17.9083 53.2877 17.6925 52.3164C17.8543 51.7768 18.5019 50.6436 18.8256 49.9961C19.4731 48.7552 19.8508 48.0536 19.9587 47.4061C20.1746 46.4889 20.8761 40.8232 21.1458 38.449C21.8473 39.3664 22.8186 40.8772 22.6028 41.8485C24.1675 39.6361 23.0344 37.4778 22.4948 36.6145C22.0092 35.7511 21.3617 34.0245 21.9012 32.1899C22.4408 30.3553 24.3833 25.2832 24.3833 25.2832C24.3833 25.2832 25.0308 26.4164 25.9482 26.2006C26.8654 25.9847 34.2578 14.8693 34.2578 14.8693C34.2578 14.8693 36.2542 19.2399 34.1498 22.4235C31.9915 25.607 29.8871 26.2006 29.8871 26.2006C29.8871 26.2006 32.8547 26.7402 35.6067 24.7436C36.7397 27.3877 37.8189 30.1395 37.8729 30.5172C37.711 30.8949 35.5526 36.0749 35.3369 36.3986C35.2289 36.5065 34.4735 36.7224 33.9339 36.8303C33.0167 37.1002 32.4771 37.262 32.2612 37.4239C31.8836 37.7477 30.1568 42.496 29.3475 44.8161C28.3762 45.086 27.405 45.6256 26.7036 46.7047C27.0812 46.4349 28.2683 46.2731 29.1317 46.1651C29.8871 46.1111 32.2073 47.3522 32.8008 49.6724C32.8008 49.7264 32.8008 49.7264 32.8008 49.7803C32.9087 50.6436 32.639 51.4531 32.2073 52.1006ZM27.1353 52.7481C27.6208 52.0466 27.5668 50.8595 27.6208 50.4818C27.6748 50.104 27.7828 49.4026 28.2144 49.2947C28.6461 49.1868 29.6712 49.3486 29.6712 50.104C29.6712 50.8056 28.9158 50.9674 28.3762 51.4531C27.9986 51.8307 27.2432 52.6402 27.1353 52.7481ZM48.6646 42.442C49.2042 39.6902 49.2581 37.316 49.0962 35.3735C51.2006 38.1793 52.4956 41.5786 52.8733 45.086C52.9272 45.5177 53.3589 45.9493 53.7906 46.381C54.1683 46.7047 54.6 47.1364 54.6 47.4061C54.6 48.6472 54.4921 49.8882 54.2762 51.1293C54.2222 51.2911 53.7367 51.561 53.3589 51.7768C52.8193 52.0466 52.3337 52.3164 52.2258 52.7481C51.0387 56.9028 48.5026 60.572 45.1033 63.1621C50.1214 57.9281 52.5496 49.2947 48.6646 42.442ZM45.2651 63.6477C48.7725 60.9497 51.4704 57.1727 52.6575 52.9099C52.7114 52.7481 53.1971 52.4782 53.5208 52.2624C54.0604 51.9927 54.6 51.6689 54.7079 51.2372C54.9237 49.9961 55.0317 48.7011 55.0317 47.4061C55.0317 46.9206 54.5461 46.4349 54.0604 45.9493C53.7906 45.6256 53.3589 45.2478 53.3589 44.9781C52.9272 41.039 51.3625 37.316 48.9343 34.2403C47.8551 27.7653 43.5385 25.7689 43.4306 25.7149C43.5385 25.8768 46.3443 29.9236 44.4018 34.672C42.4054 39.4743 37.2794 38.7189 36.8478 38.7728C36.4161 38.7728 34.7433 40.9311 32.639 44.924C32.3692 44.8161 31.236 44.5464 29.9411 44.7622C30.9122 42.0643 32.3692 38.2332 32.639 37.9095C32.7469 37.8015 33.5562 37.5857 34.0958 37.4239C35.121 37.154 35.6067 36.9922 35.7686 36.7764C35.8765 36.6145 36.4161 35.3735 36.9557 34.0785C37.4412 34.0785 38.6822 33.9706 38.7901 33.9165C38.8981 33.8086 39.9233 31.1647 39.9233 30.841C39.9233 30.5711 37.819 25.3372 37.0096 23.3407C37.3873 22.909 37.765 22.3695 38.1428 21.776C49.2042 22.9631 57.8375 32.3518 57.8375 43.737C57.8375 52.4782 52.7114 60.0864 45.2651 63.6477Z" fill="#1B314F"/>
<path d="M30.9123 34.5101C31.9375 33.3231 31.3979 31.1107 29.5094 30.7331C29.995 29.5999 30.6965 27.3336 30.6965 27.3336C30.6965 27.3336 25.1928 35.9669 24.7071 36.1289C24.2215 36.2907 23.7358 34.4022 23.7358 34.4022C22.7107 38.3411 25.4625 38.8807 25.7862 37.6397C27.2971 37.262 29.8871 35.6432 30.9123 34.5101Z" fill="#1B314F"/>
<path d="M26.218 36.6147L29.0239 31.8123C29.0239 31.8123 30.6426 32.6218 29.8332 33.9168C28.808 35.4276 26.218 36.6147 26.218 36.6147Z" fill="#FFD923"/>
<path d="M60.913 58.8455C60.1035 59.9247 59.1863 61.0578 58.1071 62.137C65.0677 48.7553 58.4309 36.5067 58.161 36.0212C58.6467 36.5067 59.1323 37.0463 59.5639 37.532C64.9059 43.4674 65.5534 52.3705 60.913 58.8455Z" fill="#D82122"/>
<path d="M67.3879 41.6328C64.9597 35.1039 61.5064 29.5461 53.8984 24.528C46.56 19.6718 38.6821 20.0494 38.2504 20.1035C38.1964 20.1035 38.1425 20.1035 38.1425 20.1035C38.4122 19.9955 38.6821 19.9416 38.9518 19.8876C40.6246 19.348 42.7829 18.9164 44.9413 18.6465C50.6609 17.8372 56.4343 19.7797 60.3734 23.9344C60.4272 23.9885 60.4272 23.9885 60.4813 24.0423C64.9597 28.7907 67.28 34.7261 67.3879 41.6328Z" fill="#D82122"/>
<path d="M52.1717 14.9236C44.1318 13.4127 38.9518 14.1682 35.2287 15.5711C35.1208 15.1394 34.7431 14.2761 34.4193 13.5746C33.2862 14.9236 32.0992 16.5423 31.3437 17.5676C29.2933 18.9705 28.43 20.3194 28.43 20.3194C29.6171 16.2726 33.0704 13.2509 37.2792 12.4954C38.4662 12.2796 39.7612 12.1717 41.1642 12.1717C44.8872 12.2257 48.6104 13.1429 52.1717 14.9236Z" fill="#D82122"/>
<path d="M22.4405 25.2836C16.1275 25.0677 18.2318 17.7294 18.3397 17.2977C18.3397 17.3517 18.7714 23.0713 22.4405 25.2836Z" fill="#D82122"/>
<path d="M28.6458 12.0637C23.7896 14.9775 24.7608 21.938 24.7608 21.938C20.1204 14.8696 28.268 12.2256 28.6458 12.0637Z" fill="#D82122"/>
<path d="M20.6601 27.2258C20.9839 27.4955 21.3076 27.9812 20.93 28.6826C20.7142 29.0604 20.3904 29.0064 19.9047 28.7905C19.2572 28.4668 15.3722 26.2005 11.865 23.8804C15.8579 25.2833 19.9047 26.7941 20.5522 27.1179C20.5522 27.1179 20.6063 27.1718 20.6601 27.2258Z" fill="white"/>
<path d="M13.7297 20.8203C13.7297 20.8203 15.7869 8.42538 28.7255 4.69068C41.6642 0.955973 49.0268 6.04383 49.0268 6.04383L44.8583 9.99505L33.5978 9.83267L31.2159 10.6987L32.5692 8.69602L23.7991 13.2967L20.984 16.7067L21.0382 13.2967L18.2772 16.1113L13.7297 20.8203Z" fill="#D82122"/>
<path d="M48.1064 6.58516C48.1064 6.58516 40.5814 5.98977 36.5753 7.55943C38.1994 6.26041 39.3904 5.66502 39.3904 5.66502C39.3904 5.66502 28.9961 5.44851 22.8246 13.2968C24.4487 12.8638 26.9931 10.7529 26.9931 10.7529L32.6234 8.69609L31.9736 10.6446L39.228 9.50798L43.7213 9.94099L48.1064 6.58516Z" fill="#AF1C24"/>
<path d="M49.568 11.348L41.3392 9.50769L32.2983 10.1572L32.5691 8.6958L25.0441 12.3222L21.9583 14.7579L22.0666 12.7011C22.0666 12.7011 14.1085 18.8174 15.6784 25.0961C17.1943 31.3746 24.1778 28.0188 24.1778 28.0188L31.757 19.521L55.0357 15.0286L48.3769 12.1057L49.568 11.348Z" fill="white"/>
<path d="M59.8539 10.2654L58.717 6.42245L55.7395 3.82439C55.7395 3.82439 51.4627 3.49964 50.4882 5.01518L49.4055 7.01784L51.8417 9.77827L56.7139 11.3479L56.3891 9.77827L59.8539 10.2654Z" fill="white"/>
<path d="M38.1991 14.9745C38.1991 14.9745 38.578 14.0003 42.53 12.8636C30.4576 12.1059 23.9612 24.9879 23.1491 25.6915C22.3371 26.341 19.7926 27.9648 21.5251 25.2585C19.9009 26.1246 17.4107 25.5833 19.8468 23.6347C14.758 22.2275 21.5251 13.6755 21.5251 13.6755L17.7896 15.7864L13.4587 22.0109L12.376 28.1273L13.8377 31.9702L17.3565 33.3774L22.5537 31.9702L25.8018 28.885L27.047 25.4209L30.1328 23.6889L36.8457 19.7918L42.2594 18.1138L50.8129 17.5726L50.3798 16.2194C50.3798 16.2194 51.7332 15.5158 52.8701 14.758C44.3166 12.9178 38.1991 14.9745 38.1991 14.9745Z" fill="#94A6C3"/>
<path d="M59.6914 9.56188C58.7711 8.20873 54.9814 7.99223 53.3574 7.12621C51.7333 6.31432 52.0581 5.28592 52.4912 4.04102L50.434 5.12355L49.2971 6.53082L51.4626 9.39952L56.9303 11.4563L56.1183 9.34538C56.2266 9.39952 60.6117 10.915 59.6914 9.56188Z" fill="#94A6C3"/>
<path d="M54.765 6.85557C54.765 6.85557 53.6281 6.31431 53.4657 5.66479C53.4657 6.58494 52.8703 6.63907 54.765 6.85557Z" fill="#94A6C3"/>
<path d="M25.6393 19.7916C25.9101 19.1963 27.9673 16.3817 29.2123 15.8945C26.1806 16.2734 25.1521 17.3019 25.1521 17.3019C25.1521 17.3019 24.7732 19.5752 23.0948 21.4154C23.0948 21.4154 25.3686 20.3871 25.6393 19.7916Z" fill="#94A6C3"/>
<path d="M38.1991 17.302L42.8548 16.1112L40.0939 15.7865C40.0939 15.7865 38.6864 16.3277 38.1991 17.302Z" fill="#1B314F"/>
<path d="M19.7929 27.9648C19.089 27.8567 18.3311 26.8823 18.3311 26.8823C18.3311 26.8823 18.1687 28.6144 19.7929 27.9648Z" fill="#1B314F"/>
<path d="M20.4425 30.8334C20.4425 30.8334 21.4711 30.3464 22.0124 28.939C21.2003 29.5886 18.3311 30.0216 18.3311 30.0216C18.9807 30.5628 20.4425 30.8334 20.4425 30.8334Z" fill="#1B314F"/>
<path d="M62.1817 12.3223L61.3696 10.5362C60.9365 9.61602 60.5576 8.91238 60.0703 8.31699L60.9365 8.37112L60.3952 7.12621C60.341 7.01796 59.2041 4.52816 55.6312 3.33738C52.2747 2.25486 50.2716 3.93277 49.4596 5.39418C46.9152 3.77039 39.8233 0.522824 28.617 4.04102C17.5731 7.50509 13.7836 15.4075 12.4843 21.2531C12.2136 20.9826 11.8888 20.6037 11.7264 20.2788C11.4557 21.2531 11.9971 22.5522 12.1595 22.9852C11.9971 24.1219 11.8888 25.0961 11.8888 25.908C11.5098 26.0163 10.3188 26.5033 9.8316 27.6401C10.373 27.4235 11.7264 27.5859 11.8346 27.6401C11.7805 27.6941 11.0226 28.2354 10.9143 28.8849C11.3474 28.7226 11.8888 28.9932 11.8888 28.9932C11.9429 29.3721 11.9971 29.7509 12.1053 30.0757C12.8632 32.5655 14.8122 33.9186 17.6272 33.9186C17.7355 33.9186 17.898 33.9186 18.0062 33.9186C25.8019 33.5939 27.5884 27.3694 27.9674 25.475C28.7253 25.2044 30.241 24.6089 32.4065 23.4723C33.4893 23.2017 34.572 22.9311 35.4923 22.6062C35.6548 22.1733 35.8172 21.7945 35.9255 21.3614C36.0878 21.2531 36.1961 21.199 36.3585 21.0907C41.5015 17.6808 51.9498 18.4927 52.0581 18.4927L54.6567 18.7093L51.8415 16.3817C53.0325 16.3817 54.4401 16.4359 55.5229 16.5983L58.6628 17.0855L56.1183 15.1369C54.4401 13.892 52.3829 12.9177 50.7048 12.2141L53.0867 11.9434L49.9467 10.7527C48.5393 10.2114 47.1317 9.7784 45.7783 9.50777C46.9151 8.91238 48.2144 8.37112 49.0806 8.04636C49.1347 8.20874 49.243 8.37112 49.3513 8.5335C50.9212 11.0774 56.4432 11.9976 57.0928 12.1058L58.9876 12.4306L57.9048 10.9151C59.2041 11.2398 60.3952 11.6728 60.3952 11.6728L62.1817 12.3223ZM46.1572 11.2398L43.7211 11.7811L46.9151 12.6471C46.9692 12.6471 49.6761 13.4049 52.3288 14.758C50.8671 14.758 49.5679 14.8121 49.5137 14.8121L47.3482 14.9204L49.6762 16.8148C46.3196 16.7607 40.3105 17.0855 36.2502 19.3046C36.3585 16.057 34.6262 13.6755 34.6262 13.6755L23.6906 27.6941C23.6906 27.6941 24.9357 27.2612 25.9102 26.6658C25.0982 28.8307 23.0951 32.0242 18.0062 32.2408C17.7355 32.2408 17.4648 32.2408 17.2484 32.2408C13.5129 31.9161 12.2677 26.0704 15.8949 26.6658C15.2453 25.8538 14.9746 25.0419 14.9746 25.0419C14.9746 25.0419 16.2198 24.6631 16.8152 24.0677C14.4873 24.1759 14.0001 23.5264 16.2198 19.5211C17.4107 17.6808 18.9807 15.9488 20.8213 14.5415C20.6589 15.3534 20.6589 15.8405 20.6589 15.8405L20.4423 18.9257L22.1748 16.3277C22.2289 16.2736 24.8816 12.3223 30.9449 10.2114L29.6456 11.8893L32.1358 11.1316C32.1358 11.1857 38.524 9.34539 46.1572 11.2398ZM43.288 9.02063C39.2819 8.47937 35.8172 8.80413 33.76 9.18301L34.8427 7.55923L32.8397 8.04636C27.9674 9.18301 24.665 11.5646 22.8244 13.2966C22.8244 13.1883 22.8785 13.1342 22.8785 13.026L23.3657 11.1316L21.6875 12.1058C18.8724 13.7837 16.6528 16.1111 14.9746 18.601C16.7611 13.7296 20.6589 8.26287 28.996 5.61068C39.0113 2.41724 45.5618 5.12354 48.1061 6.58495C46.7528 7.12621 44.6956 8.04635 43.288 9.02063ZM55.7936 8.80413L53.574 8.58762L54.8732 9.88665C53.0867 9.34539 51.2461 8.58762 50.6506 7.61334C50.5965 7.55923 50.5965 7.50509 50.5423 7.39684L51.4626 7.07208L50.5965 6.36844C50.9753 5.61068 52.1664 3.9869 54.9815 4.90704C56.2808 5.34005 57.2011 5.98956 57.7965 6.53082L55.0356 6.26019L57.3094 7.93811C58.0131 8.47937 58.5004 8.91238 58.8793 9.45364C57.9048 9.18301 56.7681 8.91238 55.7936 8.80413Z" fill="#1B314F"/>
<path d="M20.3342 20.2789C19.6846 19.7918 20.1176 18.1138 20.1176 18.1138C20.1176 18.1138 18.0604 20.0624 20.3342 20.2789Z" fill="#1B314F"/>
<path d="M30.0785 26.3952C30.0785 26.3952 32.1899 25.7998 34.3553 22.6063C36.5208 19.4129 34.4636 15.0286 34.4636 15.0286C34.4636 15.0286 30.4034 21.145 27.9131 24.3384C27.9131 24.3384 28.0213 24.6632 27.9672 25.4209C27.859 26.1787 28.671 26.8282 28.671 26.8282L30.0785 26.3952ZM33.8682 18.3845C33.8682 18.3845 34.4095 20.5495 33.1643 22.011C31.6485 23.7971 30.2951 23.743 30.2951 23.743L33.8682 18.3845Z" fill="white"/>
<path d="M14.0543 25.4208C13.8918 24.9336 13.7294 24.5006 13.567 24.0134C12.1053 23.4723 9.8316 22.6604 7.612 21.8484C10.2647 23.5804 13.1339 25.2584 14.2167 25.8538C14.1626 25.6914 14.1084 25.5831 14.0543 25.4208Z" fill="white"/>
</svg>
