<svg width="74" height="74" viewBox="0 0 74 74" fill="none" xmlns="http://www.w3.org/2000/svg">
<rect width="74" height="74" rx="30" fill="white"/>
<path fill-rule="evenodd" clip-rule="evenodd" d="M51.5422 23.6403C51.5422 22.8293 52.1019 22.1257 52.8921 21.9432L62.6163 19.6974C63.7078 19.4453 64.75 20.2742 64.75 21.3945V43.8962C64.75 44.6988 64.2015 45.3976 63.4218 45.5881L53.6975 47.9648C52.6005 48.2329 51.5422 47.4022 51.5422 46.2728V23.6403Z" fill="#8200FF"/>
<path fill-rule="evenodd" clip-rule="evenodd" d="M32.8785 50.6929C30.9249 51.0226 28.7772 49.6418 28.7772 47.2513V28.8874L21.0206 30.6788C20.2304 30.8613 19.6708 31.5649 19.6708 32.3759V55.0781C19.6708 56.1852 20.6901 57.0114 21.7732 56.7821L31.4975 54.7237C32.3026 54.5533 32.8785 53.8426 32.8785 53.0197V50.6929Z" fill="#00FFDA"/>
<path fill-rule="evenodd" clip-rule="evenodd" d="M31.6429 21.9633C30.8527 22.1458 30.293 22.8495 30.293 23.6604V46.3828C30.293 47.4833 31.301 48.308 32.3798 48.09L39.1834 46.7152L38.8538 32.7606C38.8155 31.1397 39.9007 29.7066 41.4714 29.304L44.0512 28.6427L43.6212 21.2845C43.5582 20.2076 42.5415 19.4463 41.4904 19.6891L31.6429 21.9633Z" fill="#8200FF"/>
<path fill-rule="evenodd" clip-rule="evenodd" d="M53.9216 50.6929C51.9679 51.0226 49.8202 49.6418 49.8202 47.2513V28.8874L42.0636 30.6788C41.2735 30.8613 40.7138 31.5649 40.7138 32.3759V55.0781C40.7138 56.1852 41.7332 57.0114 42.8163 56.7821L52.5405 54.7237C53.3456 54.5533 53.9216 53.8426 53.9216 53.0197V50.6929Z" fill="#00FFDA"/>
<path fill-rule="evenodd" clip-rule="evenodd" d="M10.5998 21.9633C9.80967 22.1458 9.25 22.8495 9.25 23.6604V46.3828C9.25 47.4833 10.258 48.308 11.3368 48.09L18.1403 46.7152L17.8108 32.7606C17.7725 31.1397 18.8577 29.7066 20.4283 29.304L23.0081 28.6427L22.5781 21.2845C22.5152 20.2076 21.4985 19.4463 20.4474 19.6891L10.5998 21.9633Z" fill="#8200FF"/>
</svg>
