<svg width="74" height="74" viewBox="0 0 74 74" fill="none" xmlns="http://www.w3.org/2000/svg">
<rect x="1.5" y="1.5" width="71" height="71" rx="28.5" fill="#0E0E0B" stroke="#C2A375" stroke-width="3"/>
<path fill-rule="evenodd" clip-rule="evenodd" d="M24.6667 22.7333C24.6667 21.0765 26.0098 19.7333 27.6667 19.7333H29.0667C30.7235 19.7333 32.0667 21.0765 32.0667 22.7333V37.1383C32.0683 37.0789 32.0716 37.0195 32.0767 36.9602C32.0929 36.2144 32.3855 35.4735 32.9547 34.9044L43.5377 24.3213C44.7093 23.1498 46.6088 23.1498 47.7803 24.3213L48.7703 25.3113C49.9418 26.4828 49.9419 28.3823 48.7703 29.5539L40.9938 37.3304L50.0947 47.7997C51.1817 49.0502 51.0492 50.945 49.7988 52.032L48.7422 52.9505C47.4917 54.0375 45.5969 53.905 44.5099 52.6546L32.8015 39.1856C32.3267 38.6394 32.0846 37.9702 32.0667 37.2991V43.8667C32.0667 45.5235 30.7235 46.8667 29.0667 46.8667H27.6667C26.0098 46.8667 24.6667 45.5235 24.6667 43.8667V22.7333Z" fill="#C2A375"/>
</svg>
