<svg width="74" height="74" viewBox="0 0 74 74" fill="none" xmlns="http://www.w3.org/2000/svg">
<path fill-rule="evenodd" clip-rule="evenodd" d="M37 74C57.4345 74 74 57.4345 74 37C74 16.5655 57.4345 0 37 0C16.5655 0 0 16.5655 0 37C0 57.4345 16.5655 74 37 74Z" fill="white"/>
<mask id="mask0_3_7894" style="mask-type:alpha" maskUnits="userSpaceOnUse" x="0" y="0" width="74" height="74">
<path fill-rule="evenodd" clip-rule="evenodd" d="M37 74C57.4345 74 74 57.4345 74 37C74 16.5655 57.4345 0 37 0C16.5655 0 0 16.5655 0 37C0 57.4345 16.5655 74 37 74Z" fill="white"/>
</mask>
<g mask="url(#mask0_3_7894)">
<path d="M48.3616 58.5348C48.7847 57.2347 49.0302 55.8813 49.0912 54.5128V54.4548C48.8037 54.6971 48.5043 54.9242 48.1942 55.1353C47.1751 55.8284 46.0592 56.3603 44.8844 56.713C44.3673 56.8715 43.8411 56.9969 43.3087 57.0883L43.6316 56.9968C43.174 57.1371 42.7045 57.2331 42.2293 57.2836C39.4906 57.5888 36.2645 56.9297 32.9756 54.0368C27.6715 49.374 30.3146 41.5254 33.8247 37.2716C33.8247 37.2716 38.486 32.4471 40.5341 30.4941C41.6254 29.4566 42.6868 28.4404 43.7034 27.3419C42.3725 28.575 40.9566 29.709 39.4667 30.7352C38.1242 31.6506 36.7488 32.5112 35.4004 33.4083C34.052 34.3055 32.7095 35.2179 31.4328 36.1944C28.8734 38.1352 26.4247 40.3231 24.7653 43.0726C23.9394 44.4375 23.347 45.9358 23.0132 47.5034C22.7006 49.0752 22.617 50.6855 22.7651 52.2821C23.0431 55.4802 24.2869 58.5287 26.0749 61.1805C26.9648 62.504 27.9651 63.7466 29.0648 64.8942C31.4065 65.9321 33.9298 66.476 36.4827 66.4932C39.0502 66.4892 41.5947 65.9998 43.9874 65.0498C44.9484 64.2032 45.8066 63.2423 46.5438 62.1875C47.3208 61.0668 47.9333 59.8362 48.3616 58.5348Z" fill="#C1272D"/>
<path d="M42.0499 32.148C40.2091 33.8345 38.4792 35.6429 36.8714 37.5615C40.3188 38.1718 45.8023 40.0759 48.4154 45.9563C48.5786 46.3262 48.7155 46.7076 48.825 47.0975C49.1638 48.1402 49.4169 49.2099 49.5815 50.2956C49.7294 51.2556 49.8044 52.2258 49.8057 53.1976C50.8565 52.0063 51.7026 50.6424 52.3083 49.1634C53.1972 46.9085 53.7242 44.5221 53.869 42.0961C53.9796 40.388 53.9796 38.6744 53.869 36.9664C52.0599 34.2383 49.583 32.0406 46.6843 30.5917C46.6843 30.5917 52.9332 21.3883 51.9794 14.6047C51.7041 18.0266 50.6408 21.3337 48.8759 24.2567C46.8039 27.6226 44.4927 29.8227 42.0499 32.148Z" fill="black"/>
<path d="M44.4747 56.6794L44.5345 56.655L44.8335 56.5543C45.9677 56.1528 47.0369 55.5809 48.0058 54.8577C48.3911 54.5677 48.7586 54.2538 49.1061 53.9178C49.1187 52.9886 49.0577 52.06 48.9237 51.1409C48.3813 53.6007 46.7318 55.6543 44.4747 56.6794Z" fill="black"/>
<path d="M55.0859 39.1727C55.05 40.1827 54.9783 41.1928 54.8617 42.1968C54.5975 44.7034 53.9404 47.1504 52.9152 49.4442C52.1524 51.0957 51.0937 52.5871 49.7938 53.8415C49.7938 54.0795 49.7938 54.3175 49.7639 54.5555C49.6622 55.9791 49.3695 57.3817 48.8938 58.7239C48.4115 60.0587 47.7418 61.3148 46.9055 62.4529C46.3303 63.234 45.6868 63.9602 44.983 64.6226C51.5608 61.6015 56.5838 55.0926 56.5838 46.2828C56.6031 43.8291 56.0916 41.4014 55.0859 39.1727Z" fill="black"/>
<path d="M44.1339 13.6404C45.1355 12.252 45.5122 10.8574 45.2461 9.49031C45.1295 8.92221 44.917 8.3791 44.6183 7.88519H44.687C47.9071 8.51381 49.8805 11.4769 49.6981 14.9434C49.6476 16.046 49.4853 17.1402 49.2137 18.2086C48.7252 19.9267 47.9788 21.5573 47.0012 23.0422C46.759 23.4359 46.5109 23.8112 46.2597 24.1743C44.2204 26.5686 41.8505 28.6472 39.2245 30.3446C37.888 31.2417 36.4947 32.0748 35.1313 32.9567C33.7679 33.8386 32.4105 34.7358 31.0979 35.7031C28.4848 37.6317 25.9463 39.8227 24.1673 42.6759C23.2726 44.0994 22.6215 45.6679 22.2419 47.3142C21.8833 48.9638 21.7664 50.6586 21.895 52.3432C21.9668 53.1848 22.0926 54.0207 22.2718 54.8454C22.4595 55.6674 22.7033 56.475 23.0013 57.2623C23.6058 58.8295 24.3907 60.3179 25.3394 61.6962C25.8706 62.4607 26.4446 63.1933 27.0586 63.8902C21.4705 60.6525 17.2069 54.5494 17.4102 46.4354C17.449 44.934 17.5208 43.4967 17.6135 42.1113C20.134 35.1172 25.3872 30.5887 30.1471 26.8841C30.3744 26.7102 30.6076 26.5301 30.8408 26.344C33.3882 24.5955 40.4832 19.5726 43.3476 14.8946L44.1339 13.6404Z" fill="black"/>
<path d="M43.0874 13.558C40.3965 13.5122 32.868 14.4552 30.183 25.7276L29.6239 26.167C25.3484 29.4871 20.6901 33.4693 17.8557 39.2886C21.1715 5.79792 40.9198 7.52204 40.9198 7.52204C41.2606 7.52204 41.5925 7.5434 41.9154 7.56171C43.1016 7.61347 44.1076 8.46788 44.3731 9.64897V9.67338C44.5973 10.836 44.2296 12.0566 43.2788 13.2956L43.0874 13.558Z" fill="black"/>
</g>
</svg>
