<svg width="74" height="74" viewBox="0 0 74 74" fill="none" xmlns="http://www.w3.org/2000/svg">
<path d="M68.0924 23.0222V51.1917C68.0924 52.3548 66.8158 53.0923 65.7944 52.525L54.3329 45.9152C53.8507 45.6315 53.567 45.1493 53.567 44.5819V29.632C53.567 29.093 53.8507 28.5824 54.3329 28.2987L65.7944 21.6889C66.8158 21.1216 68.0924 21.8591 68.0924 23.0222Z" fill="#523E97"/>
<path d="M64.9433 56.3832L40.4883 70.4821C39.467 71.0778 38.1904 70.3402 38.1904 69.1488V55.9576C38.1904 55.4186 38.4741 54.908 38.9564 54.6243L51.9498 47.1352C52.4321 46.8515 52.9995 46.8515 53.4818 47.1352L64.9433 53.7449C65.9647 54.3407 65.9647 55.8158 64.9433 56.3832Z" fill="#523E97"/>
<path d="M21.0549 29.632V44.5819C21.0549 45.1209 20.7712 45.6315 20.2889 45.9152L8.82739 52.525C7.80607 53.0923 6.52942 52.3548 6.52942 51.1917V23.0222C6.52942 21.8591 7.80607 21.1216 8.82739 21.6889L20.2889 28.2987C20.7428 28.5824 21.0549 29.093 21.0549 29.632Z" fill="#523E97"/>
<path d="M36.4315 55.9575V69.1487C36.4315 70.3118 35.1548 71.0493 34.1335 70.482L9.67853 56.4114C8.65721 55.8157 8.65721 54.3689 9.67853 53.7732L21.14 47.1634C21.6223 46.8798 22.1897 46.8798 22.672 47.1634L35.6655 54.6526C36.1478 54.9079 36.4315 55.4185 36.4315 55.9575Z" fill="#523E97"/>
<path d="M64.9433 20.4695L53.4818 27.0792C52.9995 27.3629 52.4321 27.3629 51.9499 27.0792L38.9564 19.59C38.4741 19.3064 38.1904 18.8241 38.1904 18.2568V5.06562C38.1904 3.90253 39.467 3.16496 40.4883 3.73232L64.9433 17.8029C65.9647 18.3986 65.9647 19.8737 64.9433 20.4695Z" fill="#523E97"/>
<path d="M36.4314 5.06545V18.2566C36.4314 18.7956 36.1477 19.3062 35.6654 19.5899L22.7003 27.079C22.218 27.3627 21.6506 27.3627 21.1684 27.079L9.70685 20.4693C8.68553 19.8736 8.68553 18.4268 9.70685 17.8311L34.1335 3.73215C35.1548 3.16479 36.4314 3.87399 36.4314 5.06545Z" fill="#523E97"/>
<path d="M36.0059 37.3772L24.0905 30.5121C23.5231 30.1717 22.7855 30.5972 22.7855 31.2497V44.9514C22.7855 45.2635 22.9557 45.5472 23.211 45.689L35.1264 52.5541C35.6938 52.8945 36.4315 52.469 36.4315 51.8165V38.1148C36.4315 37.8311 36.2612 37.5474 36.0059 37.3772Z" fill="#523E97"/>
<path d="M38.1904 38.1144V51.8446C38.1904 52.497 38.8997 52.9226 39.4955 52.5821L51.4109 45.7171C51.6662 45.5752 51.8364 45.2916 51.8364 44.9795V31.2494C51.8364 30.5969 51.1272 30.1714 50.5314 30.5118L38.616 37.3769C38.3607 37.5187 38.1904 37.8024 38.1904 38.1144Z" fill="#523E97"/>
<path d="M49.9072 29.1216L37.7365 36.1285C37.4811 36.2703 37.1407 36.2703 36.8854 36.1285L24.7146 29.1216C24.1472 28.7811 24.1472 27.9585 24.7146 27.6181L36.8854 20.6395C37.1407 20.4977 37.4811 20.4977 37.7365 20.6395L49.9072 27.6464C50.4746 27.9585 50.4746 28.7811 49.9072 29.1216Z" fill="#523E97"/>
</svg>
